HIERARCHY
ROOT Hips
{
	OFFSET -14.64140 90.27770 -84.91600
	CHANNELS 6 Xposition Yposition Zposition Zrotation Xrotation Yrotation
	JOINT Spine
	{
		OFFSET 0.00000 13.20850 -1.60436
		CHANNELS 3 Zrotation Xrotation Yrotation
		JOINT Spine1
		{
			OFFSET 0.00000 8.61716 0.00000
			CHANNELS 3 Zrotation Xrotation Yrotation
			JOINT Spine2
			{
				OFFSET 0.00000 8.61717 0.00000
				CHANNELS 3 Zrotation Xrotation Yrotation
				JOINT Spine3
				{
					OFFSET 0.00000 8.61717 0.00000
					CHANNELS 3 Zrotation Xrotation Yrotation
					JOINT Neck
					{
						OFFSET 0.00000 11.07920 1.10792
						CHANNELS 3 Zrotation Xrotation Yrotation
						JOINT Neck1
						{
							OFFSET 0.00000 7.08032 0.00000
							CHANNELS 3 Zrotation Xrotation Yrotation
							JOINT Head
							{
								OFFSET 0.00000 7.08031 0.00000
								CHANNELS 3 Zrotation Xrotation Yrotation
								End site
								{
									OFFSET 0.00000 0.00000 0.00000
								}
							}
						}
					}
					JOINT RightShoulder
					{
						OFFSET -0.01000 7.91373 5.19711
						CHANNELS 3 Zrotation Xrotation Yrotation
						JOINT RightArm
						{
							OFFSET -18.41580 0.00000 0.00000
							CHANNELS 3 Zrotation Xrotation Yrotation
							JOINT RightForeArm
							{
								OFFSET -29.11090 0.00000 0.00000
								CHANNELS 3 Zrotation Xrotation Yrotation
								JOINT RightHand
								{
									OFFSET -24.65040 0.00000 0.00000
									CHANNELS 3 Zrotation Xrotation Yrotation
									JOINT RightHandThumb1
									{
										OFFSET -5.35114 -0.85590 3.97906
										CHANNELS 3 Zrotation Xrotation Yrotation
										JOINT RightHandThumb2
										{
											OFFSET -4.52789 0.00000 0.00000
											CHANNELS 3 Zrotation Xrotation Yrotation
											JOINT RightHandThumb3
											{
												OFFSET -2.46976 0.00000 0.00000
												CHANNELS 3 Zrotation Xrotation Yrotation
												End site
												{
													OFFSET 0.00000 0.00000 0.00000
												}
											}
										}
									}
									JOINT RightHandIndex1
									{
										OFFSET -14.26970 0.00000 2.88139
										CHANNELS 3 Zrotation Xrotation Yrotation
										JOINT RightHandIndex2
										{
											OFFSET -5.48836 0.00000 0.00000
											CHANNELS 3 Zrotation Xrotation Yrotation
											JOINT RightHandIndex3
											{
												OFFSET -3.01859 0.00000 0.00000
												CHANNELS 3 Zrotation Xrotation Yrotation
												End site
												{
													OFFSET 0.00000 0.00000 0.00000
												}
											}
										}
									}
									JOINT RightHandMiddle1
									{
										OFFSET -14.26970 0.00000 -0.09147
										CHANNELS 3 Zrotation Xrotation Yrotation
										JOINT RightHandMiddle2
										{
											OFFSET -6.17441 0.00000 0.00000
											CHANNELS 3 Zrotation Xrotation Yrotation
											JOINT RightHandMiddle3
											{
												OFFSET -3.56743 0.00000 0.00000
												CHANNELS 3 Zrotation Xrotation Yrotation
												End site
												{
													OFFSET 0.00000 0.00000 0.00000
												}
											}
										}
									}
									JOINT RightHandRing1
									{
										OFFSET -12.69180 0.00000 -3.06433
										CHANNELS 3 Zrotation Xrotation Yrotation
										JOINT RightHandRing2
										{
											OFFSET -5.62556 0.00000 0.00000
											CHANNELS 3 Zrotation Xrotation Yrotation
											JOINT RightHandRing3
											{
												OFFSET -3.56744 0.00000 0.00000
												CHANNELS 3 Zrotation Xrotation Yrotation
												End site
												{
													OFFSET 0.00000 0.00000 0.00000
												}
											}
										}
									}
									JOINT RightHandPinky1
									{
										OFFSET -11.11390 0.00000 -6.03719
										CHANNELS 3 Zrotation Xrotation Yrotation
										JOINT RightHandPinky2
										{
											OFFSET -4.52789 0.00000 0.00000
											CHANNELS 3 Zrotation Xrotation Yrotation
											JOINT RightHandPinky3
											{
												OFFSET -2.46976 0.00000 0.00000
												CHANNELS 3 Zrotation Xrotation Yrotation
												End site
												{
													OFFSET 0.00000 0.00000 0.00000
												}
											}
										}
									}
								}
							}
						}
					}
					JOINT LeftShoulder
					{
						OFFSET 0.01000 7.91373 5.19711
						CHANNELS 3 Zrotation Xrotation Yrotation
						JOINT LeftArm
						{
							OFFSET 18.41580 0.00000 0.00000
							CHANNELS 3 Zrotation Xrotation Yrotation
							JOINT LeftForeArm
							{
								OFFSET 29.11090 0.00000 0.00000
								CHANNELS 3 Zrotation Xrotation Yrotation
								JOINT LeftHand
								{
									OFFSET 24.65040 0.00000 0.00000
									CHANNELS 3 Zrotation Xrotation Yrotation
									JOINT LeftHandThumb1
									{
										OFFSET 5.35114 -0.85590 3.97906
										CHANNELS 3 Zrotation Xrotation Yrotation
										JOINT LeftHandThumb2
										{
											OFFSET 4.52789 0.00000 0.00000
											CHANNELS 3 Zrotation Xrotation Yrotation
											JOINT LeftHandThumb3
											{
												OFFSET 2.46977 0.00000 0.00000
												CHANNELS 3 Zrotation Xrotation Yrotation
												End site
												{
													OFFSET 0.00000 0.00000 0.00000
												}
											}
										}
									}
									JOINT LeftHandIndex1
									{
										OFFSET 14.26970 0.00000 2.88139
										CHANNELS 3 Zrotation Xrotation Yrotation
										JOINT LeftHandIndex2
										{
											OFFSET 5.48836 0.00000 0.00000
											CHANNELS 3 Zrotation Xrotation Yrotation
											JOINT LeftHandIndex3
											{
												OFFSET 3.01859 0.00000 0.00000
												CHANNELS 3 Zrotation Xrotation Yrotation
												End site
												{
													OFFSET 0.00000 0.00000 0.00000
												}
											}
										}
									}
									JOINT LeftHandMiddle1
									{
										OFFSET 14.26970 0.00000 -0.09147
										CHANNELS 3 Zrotation Xrotation Yrotation
										JOINT LeftHandMiddle2
										{
											OFFSET 6.17440 0.00000 0.00000
											CHANNELS 3 Zrotation Xrotation Yrotation
											JOINT LeftHandMiddle3
											{
												OFFSET 3.56744 0.00000 0.00000
												CHANNELS 3 Zrotation Xrotation Yrotation
												End site
												{
													OFFSET 0.00000 0.00000 0.00000
												}
											}
										}
									}
									JOINT LeftHandRing1
									{
										OFFSET 12.69180 0.00000 -3.06433
										CHANNELS 3 Zrotation Xrotation Yrotation
										JOINT LeftHandRing2
										{
											OFFSET 5.62556 0.00000 0.00000
											CHANNELS 3 Zrotation Xrotation Yrotation
											JOINT LeftHandRing3
											{
												OFFSET 3.56744 0.00000 0.00000
												CHANNELS 3 Zrotation Xrotation Yrotation
												End site
												{
													OFFSET 0.00000 0.00000 0.00000
												}
											}
										}
									}
									JOINT LeftHandPinky1
									{
										OFFSET 11.11390 0.00000 -6.03719
										CHANNELS 3 Zrotation Xrotation Yrotation
										JOINT LeftHandPinky2
										{
											OFFSET 4.52789 0.00000 0.00000
											CHANNELS 3 Zrotation Xrotation Yrotation
											JOINT LeftHandPinky3
											{
												OFFSET 2.46976 0.00000 0.00000
												CHANNELS 3 Zrotation Xrotation Yrotation
												End site
												{
													OFFSET 0.00000 0.00000 0.00000
												}
											}
										}
									}
								}
							}
						}
					}
					JOINT pCube4
					{
						OFFSET 0.00000 10.91090 1.10792
						CHANNELS 3 Zrotation Xrotation Yrotation
						End site
						{
							OFFSET 0.00000 0.00000 0.00000
						}
					}
				}
			}
		}
	}
	JOINT RightUpLeg
	{
		OFFSET -9.98441 0.00000 0.00000
		CHANNELS 3 Zrotation Xrotation Yrotation
		JOINT RightLeg
		{
			OFFSET 0.00000 -42.11790 0.00000
			CHANNELS 3 Zrotation Xrotation Yrotation
			JOINT RightFoot
			{
				OFFSET 0.00000 -45.00020 -0.00001
				CHANNELS 3 Zrotation Xrotation Yrotation
				JOINT RightForeFoot
				{
					OFFSET 0.00000 -3.74820 0.00000
					CHANNELS 3 Zrotation Xrotation Yrotation
					JOINT RightToeBase
					{
						OFFSET 0.00000 0.06325 14.43120
						CHANNELS 3 Zrotation Xrotation Yrotation
						End site
						{
							OFFSET 0.00000 0.00000 0.00000
						}
					}
				}
			}
		}
	}
	JOINT LeftUpLeg
	{
		OFFSET 9.98441 0.00000 0.00000
		CHANNELS 3 Zrotation Xrotation Yrotation
		JOINT LeftLeg
		{
			OFFSET 0.00000 -42.11800 0.00000
			CHANNELS 3 Zrotation Xrotation Yrotation
			JOINT LeftFoot
			{
				OFFSET 0.00000 -45.00070 0.00000
				CHANNELS 3 Zrotation Xrotation Yrotation
				JOINT LeftForeFoot
				{
					OFFSET 0.00000 -3.74824 0.00000
					CHANNELS 3 Zrotation Xrotation Yrotation
					JOINT LeftToeBase
					{
						OFFSET 0.00000 0.06325 14.43110
						CHANNELS 3 Zrotation Xrotation Yrotation
						End site
						{
							OFFSET 0.00000 0.00000 0.00000
						}
					}
				}
			}
		}
	}
}
MOTION
Frames: 4
Frame Time: 0.050000
-0.035447953353081076 -0.034185030136269244 0.03014054013065905 -0.048713421131443745 -0.04585054880648515 0.016860742028211702 -3.122787923882971 6.533904998232049 -0.7198210569297119 -0.6227282346930154 3.193910640339899 0.35165905529182484 -0.8623464302409818 -0.1769301452236328 -0.5785425203304998 -0.30810279159688264 0.18772438707693 -0.8342941699669969 -0.088006605941528 7.417864328999654 -0.6320688220331914 -0.04923805880260333 -1.9726719323116144 -4.663033041966339 0.2905679172943573 -16.99790977988415 -0.3200238326071932 4.241454855083233 -0.1547414822829533 -11.292455548369423 71.012434635672 9.022948394851824 5.765201962607055 18.92197990214228 13.783779070944792 67.1144454554306 25.993174689876394 0.16949128939961794 -8.7375326940439 4.507788006379776 -0.14936502812831182 -1.619642961970296 -0.04445151794979488 0.0025133201154184056 -56.26864738658542 -0.01340486828194986 0.0033139138208575637 -56.2201500304697 -38.732338090379216 0.009444701346165195 -0.013619302767220794 0.015827121792174072 -0.028771444096096915 0.0396626280482089 -0.00584546773470115 -0.023328874428860336 0.030833435076300722 -36.69697491995053 0.0002038563487042625 0.04133214527185408 0.011675467308935907 0.012023146641035574 0.025204668644072337 -0.014591845015327886 -0.020107893131823994 -0.044241661719166964 -19.748995798422616 0.023674935795166534 0.04925278974115903 -0.007342583738524497 0.046927928269736165 -0.03290819072577007 -0.009889818292672634 -0.04665671147667159 0.007608010437542479 24.090154981645107 0.0063785461032145364 0.027693218239934345 28.911918087803755 0.027828838080423687 -0.00032698158358807755 28.897719033428125 0.02810523209724022 -0.04982717174152571 -3.1993378191391066 -0.050372007225665455 10.024560066397132 -68.80914288627791 18.68234643143866 -7.771898696169763 -9.426775995210877 9.683040234269443 -49.03026654478373 -17.835408135652834 5.753355854440916 -1.4982798796512726 -0.4419541189296764 0.09751404021623697 -8.10238361079917 -0.01038914183707264 -0.0007195428786101469 44.54158586496287 -0.041181899708548936 0.009945143839964818 44.58210270905893 12.48038848952612 -0.008388139331055578 0.01767789229260985 -0.027174848313802232 0.02682051655830031 -0.04509574013005659 0.046667888250623304 -0.008415314578988604 -0.02390488905347964 11.063090278178269 0.0218891194593436 0.009257549308710054 -0.03367977574946896 -0.03534054500985836 -0.015278457668618085 0.02211401456113879 -0.019918192339776878 0.020810979452995655 4.821480191643501 -0.008024202762913707 0.012555049137834205 0.04699755074645088 -0.03487203145036919 0.03387211724868185 0.04557495922080605 -0.024015784989720915 0.029479297743534343 -5.606370974247522 0.008860585802694219 0.012914338426103816 -6.707343876408192 0.003819250561152046 0.006364156582028265 -6.68631027997298 -0.033327169614556194 0.009055044076086736 0.03168904308000538 -0.0470238034080523 -0.01756538807579347 8.048925889181406 3.537480083261405 -19.18487422939412 -0.0020093861410346065 10.44352737893328 -0.013594458021049423 -5.6529634851108295 -15.655270639855303 3.2163020127166697 -0.016019264240766124 -0.038285074138917054 -0.04436150553100981 0.014624024205514008 4.696250102489665 0.016258478775924477 12.47077575778388 -8.1925738783775 6.905099769963008 -0.026395636564347867 46.35007793896116 0.04614629908253455 -4.326125704532843 -14.732484916935594 -3.844289880231704 0.020010788497347533 -0.006073475822991111 0.031820172126507826 -0.0058049146401050935 -10.711413357517102 0.014956126174034051 
-0.0024856733126494206 0.028401858363648103 -0.03722654223842377 -0.007319973762174613 -0.03525024019017271 0.015243157893003435 -2.2165663373870785 5.6653321169580275 -0.8867603552151205 -0.6703848774200238 3.28701496302626 0.37176570259996156 -0.8392874240249355 -0.33035758029801 -0.41613681379901596 -0.33349782200452527 0.17789045874043527 -0.8091635948895122 -0.06599212740734345 8.356187330810883 -0.7373490579097393 0.008369539107763932 -1.8969898085737273 -4.572389644762619 0.3791870239745962 -17.26672245617634 -0.3947809505159511 2.1118334050553242 0.444869581743707 -11.805907319095386 72.66294041706513 10.251656210917096 8.376103419891287 29.860858339223267 11.439765678507847 76.01973854203091 23.403663164696955 0.04491543526131324 -9.119580108358944 4.529789271825673 -0.16315673628293853 -1.5895916811973163 -0.032728543233975615 -0.023250279176148497 -56.270076443433055 0.018278876594508962 -0.03072090876271873 -56.258210218699716 -38.81878564296661 0.03136448630014769 -0.034641873859159275 0.044023744041880156 -0.04737661686326229 -0.026539613038445643 -0.04039447608250664 0.044893507157314605 -0.02009160663280192 -36.67632176264784 0.01743817406340527 -0.002459405073168694 0.0045510018483683684 0.04931218367419299 0.0006974603589703515 0.01871058829259393 0.007154396405808433 0.04792543063073065 -19.732861463152744 -0.022345144579925577 0.025280957264969282 0.012251563169158137 -0.004466943814512184 0.046060800620601375 -0.0054056759700368195 0.008064527410463793 -0.01594557757929435 24.103707501337084 -0.02954478376726038 -0.032081703204914776 28.854450387919027 0.03230537192334344 0.041859455412107345 28.87678196812003 -0.026979821173904087 0.04068143828954011 -1.1153896215382335 0.4088093278116559 10.427665223882768 -70.18541612465839 19.76843741916193 -8.941646093165875 -15.004928338807042 9.438347341785349 -52.936235301244075 -16.40569122373789 4.479553630781129 -0.5849883465046708 -0.4294260873534012 0.11489739039244504 -8.114250474389344 0.004258201353585324 0.029727558903754996 44.59119239494496 -0.002188215006406897 -0.03932896402789849 44.61400456008095 12.505521211976882 0.041080712034196436 -0.040765488293547716 0.012167490371032073 0.04269748131716801 -0.029195244119839755 0.0060950512016730496 -0.009714341490296426 -0.029148235104577265 11.114959627487309 0.020282744072243904 0.016188699173007574 0.04230459594746322 -0.026097447901775102 -0.005544420716617689 -0.01155732007589794 -0.03645271291637385 -0.00536029719411059 4.791635950865104 0.023807695745666508 0.011311284908841474 -0.01777569606737476 0.038628687673734896 -0.029817260802936216 0.03855215477704126 -0.026119344998251186 0.011290174048722863 -5.581141170756145 0.04943412645346129 -0.010717394581839955 -6.713858368199804 0.03190390498108961 0.014490773315238804 -6.707665807651356 0.00363308080104467 -0.03175958637208704 -0.012496353822106709 -0.016408673222447472 0.009553404879581959 7.998081941148809 3.533977573108001 -19.169966191053952 -0.01775036872699354 10.382583466377485 0.0173557974988058 -5.6371256118329995 -15.65206139546238 3.2250383687915423 0.04577960436122009 0.02989641086602799 -0.01877510470819822 -0.022285989337637195 4.706373114003598 0.02699294224673098 12.473402647161079 -8.25173958038351 6.915175594678893 -0.018078482730726993 46.40947253283567 0.016085685088035526 -4.343114356761511 -14.700265952178924 -3.872151429778922 0.020131994529084943 0.01614881445093675 -0.034244941915993865 -0.03246104107150472 -10.727423921155626 0.002965887372003219 
0.009743641288903357 0.00278438971459923 0.009684580224321525 -0.009822354841181036 -0.014012079874003568 -0.015012076440089676 -1.348485930557374 4.919853877168782 -1.0625926691090892 -0.6961076136596447 3.4103073601755662 0.40399301083794226 -0.7935843905826272 -0.5460822455347799 -0.25792540020346316 -0.2392745496098888 0.10004855555643927 -0.6524308975408963 0.011119335944633456 9.166506511983245 -0.7995513962676541 0.048704522234881205 -1.7701679758087938 -4.412965519805639 0.4805301679857022 -17.37486868560978 -0.40431019196978324 0.08147367374580855 0.9223966756251173 -12.219800586825297 74.45538925764615 11.057215477641094 10.66246573799645 38.192898904638184 8.205978976418118 82.580264739674 21.035040719499914 -0.04169381348415165 -9.091780468434012 4.507439156331918 -0.13681280742626445 -1.5487201555196437 -0.023251855143720714 -0.008127873720942654 -56.268538869429236 -0.02160263803038815 -0.03607853158878801 -56.22999067860048 -38.80442097298717 0.026608841133722496 -0.016562333214082493 0.016648146843546843 -0.0429326010484943 -0.040826829877190704 -0.022111943390168115 0.03657897138283517 0.018430757815189294 -36.668393402063224 -0.04125009497262214 0.0025011651168942977 -0.007768209583234665 -0.036842588398853446 0.0013457792745836439 0.002739248808822743 -0.006296865172867543 -0.009261669650427495 -19.7461043305968 -0.03378196631567122 -0.022640666117576123 -0.02911265407965974 0.010626777421751757 -0.004442345936327531 -0.007156592588681067 0.011082295427400577 0.038273712268318036 24.048489273679714 0.006787489264427346 -0.03495030159068363 28.844398294379037 -0.020747122502014635 0.038196017522890036 28.89816645985716 -0.02268947636614924 -0.03912695645848302 0.8338058491941166 0.7076639641709676 10.822037426398385 -71.45265495744177 20.716959248268665 -10.091777437519255 -19.689128892769947 8.281682247833915 -56.08670279636189 -15.182929783585568 2.984673733257031 0.33712847139770996 -0.4450803421318465 0.09388717234371491 -8.128197758222404 0.030825996195098983 -0.042248231942577576 44.5655559020367 -0.016594952140175083 -0.0023169316043946987 44.59957453871851 12.478043612765893 -0.014230506786449262 -0.0011796272750438114 0.02888342176286194 0.02521505858607393 0.011732270041841497 0.016596374733852226 -0.022225393939470945 -0.043603878273327894 11.099127050029905 0.005351864349269431 0.0030404698071034636 -0.00939172977636588 -0.008825405542505075 0.02599880309406211 0.03586757991979298 -0.026026808694663575 -0.04856608610547341 4.761364949631511 0.021091022375601832 0.009656899354348155 0.009705239122741415 0.04489269120857898 0.0011015948443248785 0.009301495049171165 -0.04816442485617959 0.0073626245798157994 -5.617631106427127 -0.03137680586935515 -0.01064246425022306 -6.70655678076423 -0.026113149604064943 -0.024092886252186658 -6.740258587941811 0.016854796001607542 0.042997132230460214 -0.04456690310914945 0.01291427690551904 -0.026909180965105396 8.020615098668642 3.511725873075333 -19.176220932855724 -0.0348904410360579 10.372727986170634 -0.01680391996773401 -5.611579698310759 -15.665139693176561 3.166592395327498 0.003566983434456478 -0.0031691977046674493 0.0019445262113473596 -0.00660655264188035 4.716595672572378 0.028803378810796282 12.502092881839134 -8.256566528374199 6.887195863708031 0.016015334689217543 46.426743884644075 0.037493526504386906 -4.290743487534403 -14.712770718732767 -3.8664326720225324 -0.007902135044200665 0.03678313145078945 0.0324737658052565 -0.028926156289134346 -10.743440053445473 -0.001494440678235365 
-0.04991655560653316 0.0027475532463746683 -0.01776019633551688 -0.032915465786932385 -0.001509220145863314 0.011311074094229594 -0.44573600567682153 4.259103327761053 -1.1293266083183802 -0.74789431494316 3.402178647032653 0.3554096682766864 -0.8286551622724129 -0.7843850534666202 -0.04409248147834101 -0.20780636463471577 0.042686390065893545 -0.6792108280034851 -0.030299117281072995 9.717983338971742 -0.8764138408363727 0.08692737639298365 -1.567430989633145 -4.4250418103805425 0.4985860817400492 -17.324234731028408 -0.35967075471990523 -1.6450707771226014 1.454574126971931 -12.720990247687686 76.04892893294081 10.978768068688597 12.143001765765257 42.870495075250524 5.677947579454476 85.93237258504033 19.295497972819163 -0.13808064961114544 -8.726114621805051 4.503767719033766 -0.10736021695322437 -1.5621955738302682 -0.04681799035027207 -0.008200091962349155 -56.266198803236286 0.029347030452974696 -0.025859055724668113 -56.2600050024401 -38.72025456947101 -0.02578749656358757 0.011039459997969417 -0.016347486037046163 -0.044602431382531595 -0.0362335033124559 -0.04366068880141421 0.04638058705149991 -0.024468534458604252 -36.69212589822463 -0.029143343097707237 0.04241870531808675 -0.0027363866415124893 0.020719138509465978 -0.02406220516462169 0.03421930566701084 0.00639305342806643 -0.005678938317449509 -19.745689663139206 0.018740593345294137 7.632034431927263e-05 0.04514202879657659 0.02569701205566615 0.0018440125837960511 -0.018182103096241662 0.037408344052907425 -0.021018428087947058 24.101172303130486 -0.015297289862475454 0.04720628675837397 28.891253646049048 0.013052878908342233 0.04967509217752393 28.87320571156264 0.002258647103590776 -0.008765864937386106 2.4420462821669338 1.0399502660256708 11.13302095655367 -72.46491510354755 21.12720948132635 -10.663774945756328 -21.572799367155817 6.358108489297147 -57.46252431033449 -14.706404488387893 1.5606116145224824 1.1613597414149877 -0.47441630877514385 0.0778850485087898 -8.1192752416939 0.047148031939476365 0.026863424819317038 44.609756530019084 0.0054097264375323525 0.034354476334075006 44.547081904155995 12.455386243138102 -0.003950007024933499 -0.03911720549100995 0.04707293740796897 -0.027910312454997206 -0.028136543516674876 0.001566538279915822 0.008366735127187613 0.0005113508774500438 11.12505377354009 0.04918934684469533 0.01717174068107161 0.033572139027263595 -0.04450251045969119 -0.01331182278762862 -0.0479304302215829 0.02583331106394023 -0.015829865929145297 4.780045284927351 -0.012708420303733965 -0.03092503239249209 -0.04905171835645536 0.00033260896148759974 -0.029477530540075635 0.02997256355891705 0.002833081892770789 0.005108084498266079 -5.61537992089618 -0.01835887793852396 0.014812238880754813 -6.748425400453452 -0.00727319037029782 -0.005468296139329842 -6.717651644935188 -0.013384687678333727 -0.03225925876666208 0.03397767869344443 0.0039048395441466407 -0.03615245077386273 8.005198334821314 3.475177108272301 -19.217914681925784 0.02919725125855366 10.384686330581152 -0.006997828828771726 -5.576991271148529 -15.693205665707396 3.146175026151064 -0.022753838574655436 -0.04383999122501193 -0.006121783977520998 -0.014074888445404665 4.716534679439288 0.04592066210210325 12.451774136389998 -8.210745648639492 6.84559929592926 -0.0021103497483760335 46.401379814816295 -0.0342393278871524 -4.291539034378583 -14.730794195238834 -3.8375988761871933 0.04298601900952499 0.029970895761777278 -0.002054483494494373 -0.018163458806916687 -10.79230588636215 -0.03600108281569372 
